<svg width="26" height="20" viewBox="0 0 26 20" fill="none" xmlns="http://www.w3.org/2000/svg">
<path d="M8.20499 16.4484H13.7683C13.5178 17.3117 13.6266 18.1192 14.1469 18.8549C14.5225 19.3861 15.0397 19.7383 15.677 19.9068C16.97 20.248 18.3228 19.6085 18.8751 18.4026C19.4035 17.2485 19.0986 15.7036 17.6333 14.8732C17.7867 14.4692 17.9396 14.06 18.0975 13.6524C19.2479 10.681 20.3997 7.70958 21.551 4.73815C21.8977 3.8433 22.249 2.9502 22.5849 2.0514C22.6488 1.88033 22.7374 1.84041 22.9106 1.8426C23.6301 1.85181 24.3497 1.85313 25.0693 1.84348C25.5708 1.8369 25.9526 1.46624 25.9971 0.970123C26.034 0.553842 25.7124 0.125278 25.282 0.0252655C25.1957 0.00508752 25.1039 0.00113965 25.0149 0.00113965C24.0327 -0.000176305 23.0509 -0.000176305 22.0686 0.000262348C21.6095 0.000262348 21.3009 0.202481 21.1372 0.620517C20.8193 1.43202 20.5004 2.24353 20.1968 3.06074C20.1285 3.2441 20.0376 3.29586 19.842 3.29586C13.815 3.29016 7.78809 3.29103 1.76114 3.29191C1.02806 3.29191 0.601259 3.86918 0.818035 4.55918C0.943062 4.95704 1.06674 5.35533 1.19222 5.75319C1.89831 7.99339 2.60485 10.2336 3.31138 12.4733C3.50163 13.0761 3.77956 13.277 4.42494 13.277C8.25537 13.277 12.0862 13.277 15.9167 13.277C16.0111 13.277 16.1056 13.277 16.2373 13.277C16.0691 13.7099 15.9176 14.1051 15.7593 14.4973C15.7449 14.5333 15.6855 14.5644 15.6419 14.5732C15.5771 14.5863 15.5079 14.5776 15.4404 14.5776C12.1946 14.5776 8.94886 14.5762 5.70265 14.5784C4.46452 14.5793 3.46025 15.2448 3.03255 16.3383C2.3431 18.0999 3.7139 20.0252 5.64013 19.9998C7.38332 19.9769 8.68307 18.3149 8.25716 16.6537C8.24142 16.5919 8.22613 16.53 8.20544 16.4489L8.20499 16.4484ZM19.3716 5.1439C19.341 5.24041 19.3225 5.31059 19.2969 5.37814C18.9906 6.17079 18.679 6.96124 18.3799 7.75652C18.3196 7.91619 18.2468 7.98155 18.0615 7.98023C16.7725 7.97146 15.4831 7.97584 14.1942 7.97497C14.1159 7.97497 14.0377 7.96707 13.9495 7.96268C14.0255 7.00686 14.0997 6.07823 14.1739 5.1439H19.372H19.3716ZM8.03364 7.95216C7.96708 7.96312 7.93155 7.97409 7.89557 7.97409C6.60033 7.97497 5.30553 7.9776 4.01028 7.96883C3.94417 7.96883 3.84073 7.88548 3.81869 7.82012C3.6343 7.27268 3.4643 6.72086 3.2907 6.16991C3.18456 5.83259 3.07977 5.49439 2.97273 5.15004H7.81552C7.88883 6.09052 7.96079 7.01827 8.0332 7.95172L8.03364 7.95216ZM13.0064 7.94777C12.9551 7.96181 12.934 7.97277 12.9129 7.97277C11.6549 7.97409 10.397 7.97277 9.1391 7.97804C8.9682 7.97891 8.97 7.8789 8.96101 7.76573C8.91783 7.21215 8.87151 6.65901 8.82968 6.10587C8.80585 5.78916 8.78786 5.47201 8.76672 5.15268H13.2259C13.1521 6.09315 13.0797 7.01607 13.0069 7.94821L13.0064 7.94777ZM12.7303 11.4083H9.25469C9.18857 10.5779 9.12336 9.75809 9.0568 8.92246H12.9268C12.8611 9.75458 12.7968 10.5683 12.7303 11.4083ZM17.9176 8.90623C17.8883 8.99659 17.8735 9.05186 17.8528 9.10494C17.578 9.81555 17.2978 10.524 17.0302 11.2368C16.9776 11.3767 16.911 11.425 16.7572 11.4241C15.8051 11.4166 14.8535 11.4206 13.9014 11.4197C13.8303 11.4197 13.7593 11.4109 13.6774 11.4052C13.7404 10.599 13.8033 9.81994 13.8591 9.04002C13.8695 8.89351 13.9621 8.90579 14.061 8.90579C14.8481 8.90579 15.6351 8.90579 16.4222 8.90579C16.9088 8.90579 17.3954 8.90579 17.9176 8.90579V8.90623ZM8.1119 8.91544C8.17756 9.7559 8.24187 10.5757 8.30529 11.3859C8.26346 11.4039 8.25042 11.4149 8.23693 11.4149C7.18049 11.4171 6.12405 11.421 5.06807 11.4136C5.01005 11.4136 4.921 11.3267 4.89986 11.2631C4.71502 10.7078 4.54187 10.1485 4.36647 9.59009C4.29766 9.37076 4.23155 9.15056 4.15959 8.91544H8.1119ZM15.5178 17.299C15.5124 16.8305 15.9018 16.4383 16.3754 16.4357C16.8431 16.4335 17.2281 16.8081 17.2331 17.2705C17.238 17.756 16.8751 18.1328 16.3934 18.1421C15.9189 18.1508 15.5236 17.7701 15.5182 17.299H15.5178ZM4.73166 17.2963C4.72716 16.8309 5.12428 16.4348 5.59516 16.4357C6.06649 16.4366 6.46675 16.8327 6.46316 17.2946C6.45956 17.7495 6.07008 18.135 5.6073 18.1416C5.13418 18.1482 4.73616 17.7644 4.73166 17.2959V17.2963Z" fill="white"/>
</svg>
