<svg width="31" height="26" viewBox="0 0 31 26" fill="none" xmlns="http://www.w3.org/2000/svg">
<path fill-rule="evenodd" clip-rule="evenodd" d="M8.74323 0.500488C6.56084 0.500488 4.58735 1.04593 3.15493 2.37603C1.70893 3.71876 0.972961 5.71272 0.972961 8.27076V17.7302C0.972961 20.2883 1.70893 22.2822 3.15493 23.6249C4.58735 24.9551 6.56084 25.5005 8.74323 25.5005H22.2567C24.4392 25.5005 26.4127 24.9551 27.845 23.6249C29.2911 22.2822 30.027 20.2883 30.027 17.7302V8.27076C30.027 5.71272 29.2911 3.71876 27.845 2.37603C26.4127 1.04593 24.4392 0.500488 22.2567 0.500488H8.74323ZM25.2682 8.08468C25.7111 7.74243 25.7927 7.10592 25.4504 6.663C25.1082 6.22007 24.4717 6.13846 24.0288 6.48072L16.5327 12.2729C15.9244 12.7431 15.0754 12.7431 14.467 12.2729L6.97107 6.48072C6.52814 6.13846 5.89164 6.22007 5.54938 6.663C5.20712 7.10592 5.28873 7.74243 5.73166 8.08468L13.2277 13.877C14.5661 14.911 16.4338 14.911 17.7722 13.877L25.2682 8.08468Z" fill="black"/>
</svg>
