<svg width="19" height="26" viewBox="0 0 19 26" fill="none" xmlns="http://www.w3.org/2000/svg">
<path d="M9.03526 0.500977C6.45279 0.590971 4.00239 1.83916 2.28466 4.3688C1.12744 6.07284 0.596276 7.98131 0.897563 10.0561C1.08538 11.3493 1.59209 12.5495 2.13891 13.7263C4.04934 17.8377 6.56626 21.5803 9.18492 25.2594C9.44806 25.6291 9.61142 25.5372 9.82467 25.2261C10.5515 24.1687 11.3106 23.1318 12.0217 22.0636C14.0456 19.0233 15.9854 15.9322 17.3637 12.53C17.797 11.4608 18.1795 10.3652 18.1854 9.19527C18.2069 4.43238 14.2735 0.503911 9.03526 0.500977ZM9.50577 12.303C7.80761 12.3148 6.35693 10.8572 6.37747 9.15907C6.39801 7.46384 7.8125 6.0699 9.50773 6.07479C11.199 6.08066 12.6106 7.49515 12.6116 9.18549C12.6116 10.87 11.1961 12.2913 9.50577 12.303Z" fill="#010101"/>
</svg>
