<svg width="100" height="46" viewBox="0 0 100 46" fill="none" xmlns="http://www.w3.org/2000/svg">
<path d="M8.48454 36.1196C8.48454 38.5157 8.48454 40.9117 8.48454 43.3078C8.48454 43.8253 8.60678 44.7055 7.84885 44.7055C7.09092 44.7055 7.16019 43.8905 7.15612 43.3648C7.12895 40.3331 7.12895 37.3013 7.15612 34.2696C7.15612 33.7888 7.23762 33.0471 7.64918 32.9208C8.40304 32.7089 8.70458 33.3283 9.03058 33.8499C10.1919 35.6836 11.5081 37.5907 12.6083 39.4407C13.1422 40.3372 13.3255 40.3209 13.8797 39.4081C14.9555 37.6233 16.0802 35.867 17.1926 34.1107C17.5431 33.5606 17.759 32.7904 18.6351 32.9371C19.3075 33.0471 19.1934 34.021 19.2056 34.5875C19.2545 37.4154 19.2545 40.2448 19.2056 43.0755C19.2056 43.6419 19.3075 44.7055 18.6025 44.681C17.7631 44.6443 17.9302 43.5767 17.9098 42.9777C17.8365 40.708 17.8813 38.4342 17.8813 35.6999C16.5814 37.5825 15.579 39.078 14.6214 40.6102C13.1829 42.8554 13.2196 42.8717 11.8708 40.6876C10.9173 39.1432 9.94743 37.611 8.98168 36.0748C8.38266 35.1294 8.46824 35.215 8.48454 36.1196Z" fill="#222831"/>
<path d="M63.9491 32.9016C65.1838 32.8302 66.4071 33.1729 67.425 33.8755C67.6939 34.0426 68.0525 34.2382 67.8814 34.6539C67.8491 34.7515 67.7933 34.8397 67.719 34.9107C67.6446 34.9818 67.554 35.0334 67.455 35.0612C67.356 35.089 67.2516 35.092 67.1512 35.07C67.0508 35.048 66.9573 35.0016 66.8789 34.935C65.885 34.3465 64.7401 34.0631 63.5864 34.12C60.5343 34.2178 58.9084 36.2105 59.1651 39.5926C59.2053 40.2164 59.3756 40.8249 59.6649 41.379C59.9542 41.9331 60.3563 42.4205 60.8452 42.81C61.334 43.1995 61.899 43.4824 62.5037 43.6407C63.1084 43.7989 63.7396 43.8288 64.3566 43.7287C65.1478 43.5752 65.9218 43.3431 66.667 43.0359C67.1193 42.8729 67.592 42.5592 67.861 43.1867C68.1299 43.8143 67.5187 43.9732 67.1438 44.1973C65.033 45.4727 61.7364 45.2405 59.8945 43.7002C58.8661 42.8669 58.1327 41.7252 57.8026 40.4434C57.4724 39.1616 57.5629 37.8077 58.0608 36.5813C58.9369 34.2382 61.0111 32.8935 63.9491 32.9016Z" fill="#222831"/>
<path d="M87.1761 40.1754C87.1761 41.2552 87.1964 42.331 87.1761 43.4109C87.1761 43.9732 87.3554 44.7841 86.4018 44.7311C85.4483 44.6782 85.7376 43.8713 85.7254 43.3212C85.6337 41.7048 85.6337 40.0844 85.7254 38.468C85.8843 36.7321 84.9552 36.6832 83.6472 36.6873C82.3391 36.6913 81.2634 36.7076 81.4467 38.5699C81.5731 39.8942 81.3245 41.2552 81.2471 42.6C81.2494 42.9383 81.1802 43.2733 81.0439 43.583C80.9077 43.8927 80.7075 44.1701 80.4565 44.397C80.0083 44.78 79.4378 45.0123 78.9896 44.6252C78.3987 44.124 79.1077 43.8713 79.3971 43.5616C80.4158 42.3962 79.9675 40.9822 80.0001 39.6783C80.102 35.7215 80.0613 35.7215 84.0751 35.7174C87.1842 35.7174 87.1842 35.7174 87.1842 38.7573L87.1761 40.1754Z" fill="#222831"/>
<path d="M35.7336 40.1049C35.7336 38.8254 35.7336 37.5499 35.7336 36.2704C35.7336 35.9403 35.8029 35.5858 36.247 35.5451C36.7564 35.5043 36.9887 35.7896 37.005 36.2582C37.0253 36.8613 37.0416 37.4806 37.0376 38.0715C37.0376 38.5524 36.9235 39.3429 37.445 39.4529C38.1459 39.6078 38.9079 39.7341 39.4499 38.968C40.1467 37.9819 40.8965 37.0283 41.6137 36.0544C41.9234 35.6469 42.4287 35.268 42.8117 35.5777C43.1947 35.8874 42.8117 36.3926 42.5754 36.6983C41.6748 37.7659 40.2853 39.3755 40.326 40.113C40.3994 41.3355 41.7645 42.4765 42.7343 43.4952C43.0032 43.7764 43.2599 44.0331 42.9788 44.3102C42.5713 44.7177 42.4653 44.6362 41.956 44.1635C41.1232 43.3671 40.3674 42.4939 39.6985 41.5556C39.1402 40.7895 38.7531 40.5042 37.9259 40.7161C36.9601 40.9647 37.0376 41.7634 37.0253 42.4806C37.0131 43.1977 37.0253 44.6321 36.3856 44.6321C35.6358 44.6321 35.7662 43.2507 35.7458 42.5172C35.7458 41.7023 35.7173 40.9117 35.7173 40.1049H35.7336Z" fill="#222831"/>
<path d="M77.6125 44.617C76.7161 45.0693 76.2434 44.45 75.7625 43.8795C75.0657 43.0645 74.3567 42.2495 73.7006 41.3897C73.2076 40.7459 72.5637 40.701 71.8914 40.8681C71.1497 41.0515 71.4839 41.732 71.3494 42.2128C71.1375 43.0482 71.8914 44.6252 70.7585 44.5967C69.4586 44.5641 70.1799 42.9667 70.1188 42.0987C69.9965 40.3587 70.078 38.6025 70.0943 36.8543C70.0943 36.3979 70.0536 35.7989 70.7259 35.8152C71.3983 35.8315 71.329 36.4142 71.3453 36.8788C71.3616 37.3433 71.3209 37.6938 71.3453 38.1012C71.4065 38.6473 71.0764 39.4052 71.981 39.5641C72.6697 39.6864 73.3298 39.6334 73.8106 39.01C74.5034 38.1013 75.2043 37.1925 75.9174 36.3001C76.223 35.9212 76.6794 35.5137 77.1072 35.8926C77.6737 36.3735 76.9157 36.6547 76.7283 37.0092C76.0804 38.2316 74.3282 39.1037 74.6012 40.4688C74.8335 41.6342 76.1782 42.5755 77.0095 43.635C77.2621 43.9121 77.637 44.1484 77.6125 44.617Z" fill="#222831"/>
<path d="M23.2153 33.6298C23.036 34.2451 23.3498 35.215 22.4818 35.0642C21.5079 34.893 22.0743 33.8702 21.948 33.2305C21.8747 32.823 21.8421 32.1669 22.5063 32.2036C23.6147 32.2647 22.9708 33.2019 23.2153 33.6298Z" fill="#222831"/>
<path d="M56.1694 25.8412C70.1029 25.8412 84.0337 25.8412 97.9617 25.8412C98.8826 25.8412 100.036 25.4337 99.9992 27.1777C99.9992 28.5224 99.5917 28.8729 98.2673 28.8647C90.0849 28.8077 81.9025 28.8199 73.716 28.8321C54.2406 28.8593 34.7653 28.8933 15.2899 28.934C8.59078 28.934 3.2119 25.5722 1.07257 19.8103C-0.883388 14.5577 -0.198802 9.52929 3.41157 5.14061C7.02194 0.751934 11.7081 -0.865805 17.2051 0.438166C22.5025 1.69731 26.1373 5.10801 27.3639 10.3809C28.4926 15.2219 27.3109 19.6351 23.0445 22.7931C17.8164 26.6643 10.0048 25.6456 6.14176 20.5193C5.73427 19.9774 5.2412 18.8242 5.73427 18.3311C6.54925 17.5161 7.49463 17.1086 8.61523 18.6245C10.7546 21.534 13.8719 22.5364 17.417 21.9252C20.7381 21.3547 23.1219 19.4802 24.2384 16.2814C26.2881 10.4258 21.3982 3.48212 14.9884 3.10723C8.6356 2.73234 3.37897 7.56518 3.10187 14.028C2.83293 20.3319 7.89397 25.8045 14.1734 25.8452C28.1748 25.8738 42.1803 25.8412 56.1694 25.8412Z" fill="#222831"/>
<path d="M47.3957 40.659C49.0868 40.6876 50.7779 40.5979 52.4649 40.6876C53.7851 40.7568 54.1234 40.2434 53.9115 39.0209C53.5569 36.959 52.1674 35.598 50.1299 35.4391C47.8724 35.2679 46.0061 36.4048 45.3297 38.3649C44.5677 40.5735 45.3093 42.9288 47.1267 44.0697C48.826 45.1537 51.5765 45.0518 52.8316 43.8578C53.0639 43.6378 53.4021 43.4259 53.1169 43.0429C53.0762 42.9688 53.0194 42.9047 52.9507 42.8554C52.882 42.8061 52.8031 42.7728 52.7199 42.758C52.6367 42.7431 52.5512 42.7471 52.4697 42.7696C52.3882 42.7921 52.3127 42.8326 52.2489 42.888C51.6092 43.3992 50.8053 43.6599 49.9873 43.6215C48.5041 43.6745 47.3631 43.1121 46.6867 41.747C46.3362 41.0421 46.4829 40.6346 47.3957 40.659ZM47.6035 37.2606C48.0585 36.9041 48.5994 36.6738 49.1717 36.593C49.744 36.5122 50.3275 36.5836 50.8634 36.8001C51.8862 37.175 52.7501 38.0226 52.4934 39.0739C52.3589 39.6036 51.3117 39.4814 50.5619 39.4814C50.1544 39.4814 49.7469 39.4814 49.3394 39.4814C49.0012 39.4814 48.6589 39.4814 48.3288 39.4814C47.738 39.4814 46.6989 39.5384 46.5766 39.0739C46.3851 38.3893 47.0126 37.721 47.6035 37.2606Z" fill="#222831"/>
<path d="M32.9219 36.4863C32.9219 35.9607 32.7956 35.5165 32.168 35.5287C30.424 35.5654 28.6392 35.2557 26.9562 35.9118C25.0288 36.6615 24.3035 39.2817 25.9497 40.2801C28.3947 41.747 26.8218 42.5498 25.8153 43.6133C25.5504 43.8945 25.1755 44.1186 25.1755 44.6402C26.3735 44.848 27.5226 43.5563 28.4028 42.7046C29.283 41.853 29.9798 41.2866 31.0515 41.7756C31.7524 42.0934 31.6179 42.8717 31.6302 43.6704C31.6302 44.1023 31.4875 44.6891 32.2292 44.7136C32.9708 44.738 32.9219 44.2368 32.9219 43.7478C32.9219 41.3273 32.9178 38.9068 32.9219 36.4863ZM31.6709 38.5727C31.6709 40.3208 31.5935 40.3208 29.8046 40.2678C26.7606 40.2678 26.2105 39.6607 26.455 38.4178C26.8625 36.3804 28.5781 36.686 30.0002 36.6738C31.6872 36.6615 31.6872 36.8449 31.6709 38.5727Z" fill="#222831"/>
<path d="M94.0547 35.5056C93.4184 35.5132 92.7902 35.6479 92.2067 35.9016C91.6233 36.1554 91.0964 36.5233 90.6571 36.9835C90.2178 37.4438 89.8749 37.9871 89.6485 38.5818C89.4221 39.1764 89.3168 39.8102 89.3388 40.4461C89.3608 41.082 89.5096 41.7071 89.7765 42.2846C90.0435 42.8622 90.4231 43.3806 90.8932 43.8094C91.3632 44.2382 91.9143 44.5687 92.5138 44.7816C93.1134 44.9945 93.7495 45.0854 94.3847 45.049C95.0104 45.0401 95.6281 44.9072 96.2021 44.658C96.7761 44.4089 97.295 44.0484 97.7289 43.5975C98.1628 43.1466 98.503 42.6142 98.7298 42.031C98.9566 41.4478 99.0656 40.8254 99.0505 40.1999C99.0179 37.4371 96.8908 35.4363 94.0547 35.5056ZM94.1851 43.8429C93.7314 43.8464 93.2817 43.7582 92.8629 43.5838C92.4441 43.4093 92.0649 43.1521 91.7479 42.8275C91.431 42.5029 91.1828 42.1177 91.0183 41.6949C90.8538 41.2721 90.7764 40.8204 90.7907 40.367C90.7581 38.1624 92.0824 36.7362 94.1769 36.7281C95.1204 36.7281 96.0252 37.1029 96.6924 37.77C97.3595 38.4371 97.7343 39.342 97.7343 40.2855C97.7343 41.2289 97.3595 42.1338 96.6924 42.8009C96.0252 43.4681 95.1204 43.8429 94.1769 43.8429H94.1851Z" fill="#222831"/>
</svg>
