<svg width="15" height="12" viewBox="0 0 15 12" fill="none" xmlns="http://www.w3.org/2000/svg">
<path d="M15 3.24V10.5C15 10.8978 14.842 11.2794 14.5607 11.5607C14.2794 11.842 13.8978 12 13.5 12H1.5C1.10218 12 0.720644 11.842 0.43934 11.5607C0.158035 11.2794 0 10.8978 0 10.5V3.5175L7.14 7.41C7.25057 7.46968 7.37436 7.50063 7.5 7.5C7.63206 7.49863 7.76143 7.46241 7.875 7.395L13.5 4.1175L15 3.24Z" fill="#222831"/>
<path d="M15 1.5L13.5 2.385L7.5 5.8875L1.5 2.625L0 1.8V1.5C0 1.10218 0.158035 0.720644 0.43934 0.43934C0.720644 0.158035 1.10218 0 1.5 0H13.5C13.8978 0 14.2794 0.158035 14.5607 0.43934C14.842 0.720644 15 1.10218 15 1.5Z" fill="#222831"/>
</svg>
