<svg xmlns="http://www.w3.org/2000/svg" viewBox="0 0 296.07 296.02"><g id="Layer_2" data-name="Layer 2"><g id="Layer_1-2" data-name="Layer 1"><path d="M148,106c15.15-15.22,29.93-30.11,44.75-45,16.83-16.86,33.74-33.63,50.5-50.56,9-9,19.34-12.88,31.72-8.91,12.09,3.88,19,12.61,20.73,25,1.33,9.63-2,18-8.93,24.87q-46.45,46.45-92.91,92.94c-1.05,1-2.26,1.94-4.47,3.82,7.91,7.56,15.43,14.52,22.7,21.74q37.38,37.19,74.58,74.55c9,9,11.84,19.78,7.2,32-4.46,11.76-13.39,18-25.53,19.29-9,.95-17-2.2-23.51-8.75q-45.54-45.63-91.13-91.21c-1.76-1.76-3.22-3.82-5.33-6.35-9.19,9.32-17.63,18-26.15,26.5q-35.64,35.75-71.35,71.4c-11.24,11.22-30.46,11.29-41.49.32-12.14-12.07-12.62-30.24-.72-42.52S32.89,220.93,45,208.8q28.8-28.8,57.59-57.61c.93-.93,1.78-1.93,3.34-3.63C98.12,140,90.32,132.5,82.68,124.89Q45.86,88.22,9.15,51.42C-6.72,35.47-.71,8.81,20.21,1.81,31.91-2.1,42.37.36,51,8.94,83.23,41,115.29,73.26,148,106Z"/></g></g></svg>