<svg width="53" height="50" viewBox="0 0 53 50" fill="none" xmlns="http://www.w3.org/2000/svg">
<path d="M43.1625 18.6327C43.1625 18.6327 40.1701 1.45204 30.7187 0.136408C24.924 -0.669732 19.4728 2.11955 18.6571 7.91096C17.859 13.704 21.7769 16.3449 27.9665 15.7532C37.4662 14.8471 43.1625 18.6327 43.1625 18.6327Z" fill="#E2AE53"/>
<path d="M27.865 47.6752C27.865 47.6752 44.2396 53.6714 50.1051 46.1451C53.7005 41.5307 54.0101 35.4153 49.4037 31.8134C44.7845 28.2259 40.5393 30.2961 37.9548 35.9537C33.9918 44.6327 27.865 47.6752 27.865 47.6752Z" fill="#E2AE53"/>
<path d="M10.4052 19.6517C10.4052 19.6517 -2.97523 30.8345 0.610495 39.6765C2.80802 45.0987 7.94967 48.4249 13.3735 46.2353C18.7892 44.0296 19.1182 39.317 15.5114 34.2511C9.97637 26.4782 10.4052 19.6517 10.4052 19.6517Z" fill="#E2AE53"/>
<path d="M31.4184 7.85924L31.4201 7.85759C31.1428 7.69317 24.5501 3.8591 18.2702 6.32108C14.2942 7.88175 11.4163 11.5707 9.71698 17.288C9.71698 17.2896 9.71533 17.2912 9.71533 17.2928C9.71533 17.2945 9.71533 17.296 9.71368 17.296C9.61531 17.633 9.67662 18.012 9.91516 18.3053C10.2989 18.7761 10.9923 18.8471 11.4646 18.4633C11.6419 18.3182 11.7629 18.128 11.8241 17.9232C13.3187 12.8913 15.7532 9.67786 19.0617 8.37513C24.3323 6.30177 30.2398 9.71657 30.2996 9.75207C30.6849 9.97946 31.1864 9.95686 31.5539 9.65856C32.0247 9.27489 32.0956 8.58157 31.7119 8.11079C31.6281 8.00602 31.5281 7.92376 31.4184 7.85924Z" fill="#BB8F42"/>
<path d="M45.7518 19.3808C45.7518 19.3808 45.7502 19.3792 45.7487 19.3776C45.7471 19.376 45.7471 19.376 45.7455 19.3744C45.5036 19.1197 45.1456 18.9858 44.7716 19.0455C44.1718 19.1422 43.7639 19.7065 43.8606 20.3063C43.8977 20.5337 44.0008 20.7335 44.1476 20.8884V20.89C47.7591 24.6999 49.3231 28.413 48.7975 31.9296C47.9591 37.5322 42.0468 40.9407 41.9871 40.9745C41.5986 41.1955 41.3664 41.6404 41.4406 42.1079C41.5374 42.7077 42.1032 43.1157 42.7029 43.0189C42.8352 42.9979 42.9561 42.9527 43.0674 42.8915C43.3494 42.7335 49.9647 38.943 50.9725 32.2712C51.611 28.0485 49.8535 23.7115 45.7518 19.3808Z" fill="#BB8F42"/>
<path d="M26.1091 47.1882C25.8931 47.1061 25.6689 47.0963 25.461 47.1463C20.3564 48.3685 16.3562 47.8654 13.5751 45.6534C9.14123 42.1255 9.14608 35.3007 9.14773 35.2331H9.14608C9.15093 34.7847 8.88163 34.3623 8.43831 34.1931C7.87081 33.977 7.23395 34.2624 7.01791 34.8299C6.97115 34.9557 6.94855 35.0831 6.9469 35.2089C6.94204 35.5313 6.91789 43.1576 12.1918 47.3655C14.3893 49.1199 17.1496 50 20.4371 50C22.1397 50 23.9858 49.7631 25.9672 49.289H25.9689C25.9705 49.2874 25.9721 49.2874 25.9721 49.2874H25.9737C26.3156 49.2051 26.6123 48.9617 26.7461 48.6086C26.9621 48.0411 26.6767 47.4043 26.1091 47.1882Z" fill="#BB8F42"/>
</svg>
