<svg width="25" height="50" viewBox="0 0 25 50" fill="none" xmlns="http://www.w3.org/2000/svg">
<path d="M23.4135 28.8584C22.5375 28.8609 21.6639 28.8584 20.7878 28.8584C19.9117 28.8584 19.0381 28.8584 18.162 28.8584C17.4867 28.8584 16.9997 29.1546 16.9596 29.8525C16.9169 30.6231 17.4164 30.9922 18.1394 30.9997C19.9318 31.0173 21.7216 31.0173 23.514 30.9972C24.1792 30.9897 24.6612 30.6533 24.6511 29.9403C24.6411 29.1722 24.144 28.8534 23.4085 28.8559L23.4135 28.8584Z" fill="#E2AE53"/>
<path d="M18.1846 9.86799C19.0607 9.8705 19.9393 9.86799 20.8154 9.86799C21.6915 9.86799 22.5701 9.87552 23.4462 9.86799C24.1792 9.86046 24.6687 9.53663 24.6536 8.75091C24.6411 8.02794 24.1717 7.72419 23.4939 7.72168C21.699 7.71415 19.9016 7.71164 18.1068 7.72168C17.429 7.7267 16.9571 8.05304 16.9545 8.76346C16.9545 9.53412 17.4466 9.86548 18.1821 9.8705L18.1846 9.86799Z" fill="#E2AE53"/>
<path d="M17.9938 23.9232C19.8665 23.9382 21.7392 23.9432 23.6144 23.9282C24.2419 23.9232 24.6486 23.5868 24.6561 22.9341C24.6662 22.2287 24.2495 21.8547 23.5667 21.8346C22.6931 21.807 21.8195 21.8271 20.9434 21.8271C19.987 21.8271 19.0281 21.807 18.0716 21.8346C17.3964 21.8547 16.9495 22.2136 16.9571 22.919C16.9646 23.5516 17.3537 23.9206 17.9938 23.9257V23.9232Z" fill="#E2AE53"/>
<path d="M18.0942 16.8592C18.9653 16.8491 19.8389 16.8567 20.71 16.8567C21.6664 16.8567 22.6203 16.8567 23.5767 16.8567C24.2194 16.8567 24.6235 16.5429 24.6486 15.9028C24.6762 15.2124 24.2896 14.8083 23.5842 14.8057C21.7568 14.7932 19.9293 14.8007 18.1018 14.8007C17.4139 14.8007 16.9671 15.122 16.9671 15.83C16.9671 16.5303 17.3863 16.8667 18.0942 16.8592Z" fill="#E2AE53"/>
<path d="M14.8117 33.6481C14.8193 24.5357 14.8268 15.4233 14.8117 6.31345C14.8067 2.62331 12.2688 -0.0125069 8.80207 4.46356e-05C5.3504 0.0125961 2.80747 2.68356 2.79994 6.326C2.7899 10.8395 2.79994 15.3556 2.79994 19.8691C2.79994 24.2571 2.77483 28.6476 2.81751 33.0356C2.82755 34.1175 2.58405 34.9685 1.8887 35.8622C-1.07848 39.6703 -0.476004 44.8666 3.17899 47.9945C6.52773 50.8612 11.95 50.6253 15.0477 47.4748C18.3713 44.0935 18.537 38.867 15.3715 35.3401C14.8895 34.8028 14.8193 34.2832 14.8193 33.6506L14.8117 33.6481ZM13.4737 46.0189C10.8053 48.607 6.62564 48.5392 4.0325 45.8683C1.45442 43.2098 1.50964 38.9976 4.22579 36.427C4.80567 35.8773 5.00147 35.3526 4.99645 34.5895C4.96884 29.8224 4.98139 25.0579 4.98139 20.2908C4.98139 15.7346 5.08431 11.1734 4.94624 6.61971C4.85587 3.61488 6.91181 2.08861 8.86231 2.07606C11.1567 2.061 12.7307 3.95377 12.7332 6.68748C12.7382 15.9279 12.7432 25.1683 12.7206 34.4062C12.7206 35.2873 12.9215 35.9224 13.5867 36.5877C16.2225 39.2235 16.1246 43.4458 13.4737 46.0189Z" fill="#E2AE53"/>
<path d="M10.8721 37.1324C10.1014 36.7633 9.86044 36.3667 9.88554 35.5459C9.94579 33.5025 9.90562 31.4541 9.90311 29.4082C9.90311 27.1966 9.92571 24.9825 9.89056 22.7709C9.87299 21.6614 9.24541 21.1744 8.42706 21.5158C7.73672 21.802 7.76685 22.4019 7.76685 22.9918C7.76685 27.0836 7.74174 31.1754 7.78693 35.2647C7.79697 36.2362 7.68401 36.919 6.59956 37.2252C5.96696 37.4035 5.50005 37.9583 5.10844 38.518C3.58218 40.707 4.15954 43.6993 6.38116 45.1101C8.56763 46.4983 11.467 45.7803 12.8025 43.5211C14.138 41.2643 13.2895 38.2921 10.8696 37.1324H10.8721ZM8.84879 43.6591C7.51582 43.6842 6.36108 42.5571 6.34602 41.2166C6.33096 39.969 7.45306 38.8168 8.72829 38.7666C10.0738 38.7138 11.226 39.7983 11.2737 41.1639C11.3214 42.5245 10.242 43.634 8.84879 43.6591Z" fill="#E2AE53"/>
</svg>
