<svg width="45" height="50" viewBox="0 0 45 50" fill="none" xmlns="http://www.w3.org/2000/svg">
<path d="M44.168 14.5712C44.168 11.3227 44.1468 8.63643 44.1807 5.95444C44.1913 5.13117 43.8921 4.77895 43.0752 4.60283C36.3957 3.15787 29.7226 1.66835 23.0473 0.195802C22.606 0.0981976 22.1859 -0.0736703 21.7 0.0345428C14.8231 1.57287 7.9463 3.11119 1.06097 4.6092C0.218607 4.7938 -0.00418448 5.19482 5.91738e-05 5.99263C0.0255211 10.8304 0.0127901 15.6703 0.0170338 20.5102C0.0212774 24.461 0.935784 28.1954 2.72873 31.7092C6.90236 39.8867 13.5967 45.4607 21.4581 49.8317C22.0713 50.1733 22.5126 49.9335 23.0155 49.6556C28.4177 46.6808 33.2342 42.9676 37.1851 38.2104C40.8367 33.814 43.3893 28.8977 44.0067 23.1115C44.3292 20.0794 44.0576 17.041 44.168 14.5733V14.5712ZM42.3559 23.5104C41.5751 28.6792 39.2305 33.1265 35.9141 37.1007C32.1818 41.5756 27.6559 45.0873 22.6527 48.0218C22.2941 48.2318 21.9822 48.3188 21.5875 48.0854C14.5685 43.9033 8.42795 38.8152 4.47711 31.48C2.56959 27.9387 1.59143 24.1406 1.56809 20.1176C1.54263 15.7721 1.5787 11.4245 1.54475 7.079C1.53838 6.37668 1.75693 6.10296 2.43167 5.95444C8.72925 4.57313 15.0226 3.1706 21.3117 1.74686C22.4872 1.48163 23.5502 1.92297 24.6345 2.15849C30.3146 3.39127 35.982 4.69407 41.6621 5.92898C42.4429 6.09872 42.6572 6.42548 42.6403 7.19783C42.5872 9.52971 42.6212 11.8616 42.6212 14.62C42.5596 17.2998 42.8227 20.4189 42.3559 23.5062V23.5104Z" fill="#E2AE53"/>
<path d="M37.0259 9.46182C32.2348 8.4391 27.4544 7.36545 22.6718 6.29817C22.2814 6.21118 21.9185 6.20693 21.5281 6.29393C16.7455 7.36121 11.9672 8.4391 7.17395 9.45545C6.23823 9.6549 5.99634 10.1132 6.00695 10.9917C6.04302 13.994 6.02817 16.9985 6.01968 20.0009C6.00695 24.0366 7.23124 27.7032 9.35943 31.0896C12.3894 35.9104 16.5842 39.5408 21.2544 42.6896C21.8867 43.1161 22.3768 43.0546 22.9731 42.6259C24.4074 41.5969 25.8694 40.606 27.221 39.4666C31.7999 35.6112 35.6255 31.2211 37.4227 25.3479C38.3627 22.2755 38.1335 19.1267 38.1696 15.9928C38.1696 14.2975 38.142 12.6 38.1802 10.9047C38.1993 10.0517 37.8937 9.64854 37.0259 9.46182ZM36.3745 22.1928C35.9204 26.7314 33.6586 30.4424 30.7496 33.8098C28.4049 36.5257 25.6678 38.8003 22.7206 40.8309C22.3747 41.0707 22.0946 41.3125 21.6045 40.9773C16.841 37.6969 12.6398 33.8883 9.84745 28.7216C8.15848 25.5983 7.51769 22.2458 7.66622 18.7215C7.69592 18.017 7.67046 17.3083 7.67046 16.6039C7.67046 15.0146 7.70016 13.4254 7.65561 11.8383C7.63863 11.2357 7.80626 10.9726 8.4131 10.841C12.852 9.87769 17.2866 8.88256 21.7191 7.89379C22.0034 7.83013 22.2707 7.85772 22.5529 7.92137C26.9536 8.90165 31.3543 9.87133 35.7549 10.8559C36.0987 10.9322 36.5358 10.9068 36.5209 11.5051C36.4339 15.0677 36.7289 18.6408 36.3724 22.1949L36.3745 22.1928Z" fill="#E2AE53"/>
<path d="M27.8469 16.8521C26.9982 15.997 26.7223 16.0034 25.8481 16.8627C24.1358 18.5475 22.4129 20.2237 20.7197 21.9297C20.3314 22.3222 20.081 22.3646 19.7118 21.9297C19.2323 21.3653 18.6912 20.8539 18.182 20.315C17.7131 19.8184 17.2569 19.7527 16.7307 20.2577C15.6867 21.2613 14.6258 22.2479 13.5585 23.2261C12.9984 23.7396 12.9962 24.2382 13.5034 24.775C15.4194 26.8056 17.3333 28.8383 19.2493 30.8668C19.4678 31.1002 19.6948 31.3293 20.0513 31.323C20.3526 31.2996 20.5754 31.1363 20.7812 30.9326C24.0552 27.7116 27.3292 24.4886 30.6095 21.2719C31.1824 20.7096 31.1697 20.2004 30.601 19.6402C29.6695 18.7236 28.7699 17.7751 27.8469 16.8479V16.8521ZM27.4247 22.1291C25.1861 24.3316 22.9434 26.5298 20.7006 28.728C20.5054 28.919 20.2911 29.0908 20.064 29.2903C19.8773 29.112 19.7203 28.972 19.576 28.8214C18.2414 27.4125 16.928 25.9824 15.5679 24.5989C15.1244 24.1491 15.222 23.9178 15.6315 23.521C17.3651 21.8363 17.3524 21.8215 18.9968 23.538C20.1171 24.7071 20.2104 24.7071 21.3477 23.5868C23.007 21.9509 24.6833 20.334 26.3192 18.6769C26.7287 18.261 26.9536 18.2398 27.3865 18.6684C29.1582 20.421 29.1773 20.4062 27.4268 22.127L27.4247 22.1291Z" fill="#E2AE53"/>
</svg>
