<svg width="52" height="52" viewBox="0 0 52 52" fill="none" xmlns="http://www.w3.org/2000/svg">
<path d="M51 2.09873C51.0022 1.20281 50.7481 1 49.8833 1C33.9626 1.02452 18.0441 1.02452 2.12557 1C1.27415 1 1 1.18275 1 2.09204C1.02898 18.0091 1.02898 33.9262 1 49.8433C1 50.7815 1.25855 51.0044 2.17461 50.9999C10.116 50.9643 18.0575 50.9799 25.9967 50.9799C33.9358 50.9799 41.8795 50.9643 49.8187 50.9999C50.7214 51.0044 51.0022 50.7993 51 49.8499C50.9688 33.9329 50.971 18.0158 51 2.09873ZM47.523 31.4234C47.4294 31.4657 47.3357 31.5103 47.2421 31.5527C44.4494 28.7356 41.6588 25.9164 38.8661 23.0994C37.794 22.0185 36.7308 20.9309 35.6342 19.8745C35.233 19.4889 35.1617 19.2215 35.603 18.8003C36.7286 17.7216 37.823 16.6117 38.9062 15.4907C39.2361 15.1475 39.4344 15.1208 39.7888 15.4796C42.2161 17.9333 44.6633 20.367 47.1106 22.8007C47.358 23.0459 47.5274 23.2955 47.5274 23.6677C47.5185 26.2529 47.523 28.8382 47.523 31.4256V31.4234ZM47.4405 18.437C45.5371 16.4914 43.8364 14.7419 42.1202 13.0102C41.8505 12.7383 41.8461 12.5667 42.1202 12.2926C43.8409 10.5632 45.5437 8.82036 47.4405 6.89034V18.437ZM4.45027 5.72253C4.44804 4.68843 4.72888 4.43882 5.74301 4.44105C18.4007 4.47671 31.0606 4.46333 43.7183 4.46333H44.7636C31.3303 17.891 17.9349 31.2785 4.47479 44.7285V43.8058C4.47479 31.1114 4.48816 18.417 4.45027 5.72253ZM7.2252 47.4809C7.10039 47.1042 7.44809 46.975 7.63085 46.79C9.09076 45.3102 10.5819 43.8615 12.0239 42.3661C12.463 41.9092 12.7015 41.7711 13.2253 42.3126C14.8613 44.0042 16.5708 45.6222 18.472 47.4831H7.2252V47.4809ZM23.8703 47.541C23.4134 47.5455 23.1103 47.3605 22.8094 47.0574C20.4 44.6483 17.9861 42.2413 15.5589 39.85C15.2223 39.5179 15.0485 39.3062 15.4898 38.8916C16.6221 37.8263 17.7098 36.712 18.7997 35.6044C19.1295 35.2678 19.3658 35.1163 19.7848 35.5375C23.643 39.431 27.5234 43.3044 31.3927 47.1867C31.4373 47.2335 31.444 47.3182 31.5242 47.5321C28.8942 47.5321 26.3822 47.521 23.8703 47.541ZM37.0451 47.5366C36.6127 47.5366 36.3787 47.2625 36.1179 47.0039C31.5755 42.4731 27.042 37.9333 22.4795 33.4225C21.9089 32.8587 21.8042 32.5221 22.4528 31.9382C23.5271 30.9732 24.5145 29.9124 25.5264 28.8783C25.8094 28.5885 25.9922 28.3791 26.3978 28.7891C32.4915 34.9157 38.6031 41.0245 44.7057 47.1421C44.7703 47.2067 44.7837 47.3226 44.8684 47.5344C42.2094 47.5344 39.6283 47.5299 37.0473 47.5388L37.0451 47.5366ZM47.5787 44.8399C47.046 44.7017 46.8387 44.3273 46.5646 44.0554C40.7272 38.2565 34.9032 32.4441 29.0569 26.6541C28.5844 26.1861 28.4038 25.9186 29.0034 25.3815C30.0799 24.4187 31.0807 23.3713 32.077 22.3238C32.4938 21.887 32.7746 21.8246 33.236 22.2904C37.8876 26.9661 42.5615 31.624 47.2288 36.2863C47.4138 36.4713 47.5809 36.6518 47.5809 36.946C47.5742 39.5602 47.5765 42.1744 47.5765 44.8399H47.5787Z" fill="#E2AE53" stroke="white"/>
</svg>
