<svg width="25" height="26" viewBox="0 0 25 26" fill="none" xmlns="http://www.w3.org/2000/svg">
<path d="M18.4844 25.5007C16.7785 25.4579 15.1333 24.875 13.5972 23.9725C10.5487 22.181 7.94024 19.855 5.56807 17.2544C4.06353 15.6058 2.64788 13.8852 1.5417 11.9339C0.778732 10.5869 0.192443 9.17688 0.0529038 7.61945C-0.175535 5.06048 0.792236 2.94714 2.63213 1.25242C3.72931 0.241884 5.47805 0.259889 6.67313 1.24229C7.58014 1.98725 8.42525 2.83123 9.18709 3.72473C10.1369 4.83767 10.0828 6.63818 9.0633 7.70385C7.65441 9.17576 7.68142 10.7141 8.67394 12.3627C9.81501 14.2577 11.3454 15.7859 13.263 16.8965C14.8699 17.8272 16.3643 17.8024 17.7777 16.4577C18.9008 15.3886 20.7294 15.3774 21.8908 16.4003C22.6897 17.1036 23.4561 17.8598 24.1436 18.6723C25.4108 20.1701 25.2093 22.1416 23.734 23.4256C22.2092 24.7524 20.3536 25.4996 18.4833 25.4996L18.4844 25.5007Z" fill="black"/>
</svg>
