<svg width="25" height="26" viewBox="0 0 25 26" fill="none" xmlns="http://www.w3.org/2000/svg">
<path fill-rule="evenodd" clip-rule="evenodd" d="M12.5001 2.82603C6.24167 2.82603 1.16284 7.90487 1.16284 14.1633C1.16284 20.4216 6.24167 25.5005 12.5001 25.5005C18.7584 25.5005 23.8373 20.4216 23.8373 14.1633C23.8373 7.90487 18.7584 2.82603 12.5001 2.82603ZM12.985 9.46454C12.985 8.98289 12.5945 8.59245 12.1129 8.59245C11.6312 8.59245 11.2408 8.98289 11.2408 9.46454V13.7552C11.2408 14.2727 11.4156 14.7871 11.6561 15.209C11.8965 15.6304 12.2494 16.0418 12.6926 16.3048L12.6938 16.3055L15.9357 18.2401C16.3493 18.487 16.8847 18.3518 17.1315 17.9382C17.3783 17.5247 17.2431 16.9892 16.8295 16.7424L13.5853 14.8064L13.583 14.805C13.4617 14.7331 13.3023 14.5745 13.1712 14.3449C13.0403 14.1152 12.985 13.8972 12.985 13.7552V9.46454Z" fill="black"/>
<path fill-rule="evenodd" clip-rule="evenodd" d="M18.8232 0.795157C19.1421 0.434214 19.6932 0.400144 20.0541 0.719052L24.411 4.56864C24.7721 4.88755 24.8061 5.43868 24.4872 5.79962C24.1682 6.16056 23.6172 6.19463 23.2562 5.87572L18.8993 2.02614C18.5383 1.70723 18.5043 1.1561 18.8232 0.795157Z" fill="black"/>
<path fill-rule="evenodd" clip-rule="evenodd" d="M6.17683 0.795157C5.85792 0.434214 5.30679 0.400144 4.94586 0.719052L0.588919 4.56864C0.227976 4.88755 0.193906 5.43868 0.512814 5.79962C0.831721 6.16056 1.38285 6.19463 1.74379 5.87572L6.10073 2.02614C6.46167 1.70723 6.49574 1.1561 6.17683 0.795157Z" fill="black"/>
</svg>
