<svg xmlns="http://www.w3.org/2000/svg" viewBox="0 0 245.57 245.28"><g id="Layer_2" data-name="Layer 2"><g id="Layer_1-2" data-name="Layer 1"><path d="M245.57,122.64H218.83c-3.49-45.26-25-77.34-68.73-91.06C114,20.25,82,30.23,54.73,55.92l.09.79H91.24V84.18H88.89q-33.16,0-66.35,0c-7.71,0-13-3.74-14.77-10.38a17.33,17.33,0,0,1-.45-4.26q0-34,0-68c0-.4.07-.79.12-1.35H34.66v37c4.26-3.72,8.06-7.33,12.14-10.58A118,118,0,0,1,101.31,2c36.44-6.13,69.44,2.08,98.34,25.1,23.89,19,38.47,43.9,44,74,.81,4.45,1.3,9,1.94,13.45Z"/><path d="M114.78,245.28c-3.54-.47-7.09-.86-10.61-1.43Q54.21,235.65,24,195a118.63,118.63,0,0,1-22.5-55.43c-.77-5.5-1-11.08-1.45-16.81H27c4.22,48.64,28.41,81.35,76.71,93,33.82,8.17,67-5,87.65-27.21H154.65V161.21c.86,0,1.64-.1,2.42-.1q33.06,0,66.11,0c7.78,0,13.07,3.64,14.85,10.27a18.77,18.77,0,0,1,.54,4.73q0,33.66,0,67.31a17.13,17.13,0,0,1-.2,1.88h-27.3V208.35l-.78-.53a22.34,22.34,0,0,1-2.14,2.83c-18.83,18.1-41.09,29.29-66.95,33.24-3.37.51-6.76.93-10.14,1.39Z"/></g></g></svg>